<svg class="lds-flask" width="200px"  height="200px"  xmlns="http://www.w3.org/2000/svg" xmlns:xlink="http://www.w3.org/1999/xlink" viewBox="0 0 100 100" preserveAspectRatio="xMidYMid" style="background: none;"><defs>
<clipPath id="lds-flask-cpid-caf44704a3c85" clipPathUnits="userSpaceOnUse">
<rect x="0" y="50" width="100" height="50"></rect>
</clipPath>
<pattern id="lds-flask-patid-320ce07e18e8c" patternUnits="userSpaceOnUse" x="0" y="0" width="100" height="100">
<rect x="0" y="0" width="100" height="100" fill="#4bc2e4"></rect><circle cx="93" cy="0" r="2" fill="#ffffff" transform="translate(0 81.1422)">
<animateTransform attributeName="transform" type="translate" values="0 127;0 -27" keyTimes="0;1" dur="3s" begin="-0.21s" repeatCount="indefinite"></animateTransform>
</circle><circle cx="92" cy="0" r="2" fill="#ffffff" transform="translate(0 13.2889)">
<animateTransform attributeName="transform" type="translate" values="0 106;0 -6" keyTimes="0;1" dur="3s" begin="-1.8s" repeatCount="indefinite"></animateTransform>
</circle><circle cx="44" cy="0" r="2" fill="#ffffff" transform="translate(0 -0.753334)">
<animateTransform attributeName="transform" type="translate" values="0 119;0 -19" keyTimes="0;1" dur="3s" begin="-1.92s" repeatCount="indefinite"></animateTransform>
</circle><circle cx="38" cy="0" r="3" fill="#ffffff" transform="translate(0 61.84)">
<animateTransform attributeName="transform" type="translate" values="0 122;0 -22" keyTimes="0;1" dur="3s" begin="-0.57s" repeatCount="indefinite"></animateTransform>
</circle><circle cx="37" cy="0" r="2" fill="#ffffff" transform="translate(0 96.6756)">
<animateTransform attributeName="transform" type="translate" values="0 139;0 -39" keyTimes="0;1" dur="3s" begin="-0.03s" repeatCount="indefinite"></animateTransform>
</circle><circle cx="11" cy="0" r="3" fill="#ffffff" transform="translate(0 13.1956)">
<animateTransform attributeName="transform" type="translate" values="0 148;0 -48" keyTimes="0;1" dur="3s" begin="-1.38s" repeatCount="indefinite"></animateTransform>
</circle><circle cx="37" cy="0" r="2" fill="#ffffff" transform="translate(0 31.8556)">
<animateTransform attributeName="transform" type="translate" values="0 121;0 -21" keyTimes="0;1" dur="3s" begin="-1.2s" repeatCount="indefinite"></animateTransform>
</circle><circle cx="46" cy="0" r="2" fill="#ffffff" transform="translate(0 56.5867)">
<animateTransform attributeName="transform" type="translate" values="0 128;0 -28" keyTimes="0;1" dur="3s" begin="-0.69s" repeatCount="indefinite"></animateTransform>
</circle><circle cx="68" cy="0" r="3" fill="#ffffff" transform="translate(0 -11.2889)">
<animateTransform attributeName="transform" type="translate" values="0 120;0 -20" keyTimes="0;1" dur="3s" begin="-2.13s" repeatCount="indefinite"></animateTransform>
</circle><circle cx="10" cy="0" r="3" fill="#ffffff" transform="translate(0 90.7467)">
<animateTransform attributeName="transform" type="translate" values="0 146;0 -46" keyTimes="0;1" dur="3s" begin="-0.18s" repeatCount="indefinite"></animateTransform>
</circle><circle cx="48" cy="0" r="3" fill="#ffffff" transform="translate(0 68.6044)">
<animateTransform attributeName="transform" type="translate" values="0 141;0 -41" keyTimes="0;1" dur="3s" begin="-0.51s" repeatCount="indefinite"></animateTransform>
</circle><circle cx="57" cy="0" r="3" fill="#ffffff" transform="translate(0 77.2956)">
<animateTransform attributeName="transform" type="translate" values="0 121;0 -21" keyTimes="0;1" dur="3s" begin="-0.24s" repeatCount="indefinite"></animateTransform>
</circle><circle cx="84" cy="0" r="3" fill="#ffffff" transform="translate(0 56.8933)">
<animateTransform attributeName="transform" type="translate" values="0 116;0 -16" keyTimes="0;1" dur="3s" begin="-0.66s" repeatCount="indefinite"></animateTransform>
</circle><circle cx="15" cy="0" r="3" fill="#ffffff" transform="translate(0 -3.82667)">
<animateTransform attributeName="transform" type="translate" values="0 116;0 -16" keyTimes="0;1" dur="3s" begin="-2.04s" repeatCount="indefinite"></animateTransform>
</circle><circle cx="35" cy="0" r="2" fill="#ffffff" transform="translate(0 120.329)">
<animateTransform attributeName="transform" type="translate" values="0 142;0 -42" keyTimes="0;1" dur="3s" begin="-2.67s" repeatCount="indefinite"></animateTransform>
</circle><circle cx="34" cy="0" r="2" fill="#ffffff" transform="translate(0 112.489)">
<animateTransform attributeName="transform" type="translate" values="0 124;0 -24" keyTimes="0;1" dur="3s" begin="-2.55s" repeatCount="indefinite"></animateTransform>
</circle><circle cx="61" cy="0" r="2" fill="#ffffff" transform="translate(0 6.72444)">
<animateTransform attributeName="transform" type="translate" values="0 141;0 -41" keyTimes="0;1" dur="3s" begin="-1.53s" repeatCount="indefinite"></animateTransform>
</circle><circle cx="20" cy="0" r="2" fill="#ffffff" transform="translate(0 16.6178)">
<animateTransform attributeName="transform" type="translate" values="0 108;0 -8" keyTimes="0;1" dur="3s" begin="-1.68s" repeatCount="indefinite"></animateTransform>
</circle><circle cx="68" cy="0" r="2" fill="#ffffff" transform="translate(0 136.827)">
<animateTransform attributeName="transform" type="translate" values="0 146;0 -46" keyTimes="0;1" dur="3s" begin="-2.46s" repeatCount="indefinite"></animateTransform>
</circle><circle cx="53" cy="0" r="3" fill="#ffffff" transform="translate(0 69.1422)">
<animateTransform attributeName="transform" type="translate" values="0 109;0 -9" keyTimes="0;1" dur="3s" begin="-0.33s" repeatCount="indefinite"></animateTransform>
</circle><circle cx="54" cy="0" r="2" fill="#ffffff" transform="translate(0 29.3778)">
<animateTransform attributeName="transform" type="translate" values="0 108;0 -8" keyTimes="0;1" dur="3s" begin="-1.35s" repeatCount="indefinite"></animateTransform>
</circle><circle cx="13" cy="0" r="3" fill="#ffffff" transform="translate(0 106.062)">
<animateTransform attributeName="transform" type="translate" values="0 118;0 -18" keyTimes="0;1" dur="3s" begin="-2.58s" repeatCount="indefinite"></animateTransform>
</circle><circle cx="20" cy="0" r="3" fill="#ffffff" transform="translate(0 5.35556)">
<animateTransform attributeName="transform" type="translate" values="0 148;0 -48" keyTimes="0;1" dur="3s" begin="-1.5s" repeatCount="indefinite"></animateTransform>
</circle><circle cx="41" cy="0" r="2" fill="#ffffff" transform="translate(0 -5.45778)">
<animateTransform attributeName="transform" type="translate" values="0 118;0 -18" keyTimes="0;1" dur="3s" begin="-2.04s" repeatCount="indefinite"></animateTransform>
</circle><circle cx="60" cy="0" r="2" fill="#ffffff" transform="translate(0 115.698)">
<animateTransform attributeName="transform" type="translate" values="0 126;0 -26" keyTimes="0;1" dur="3s" begin="-2.52s" repeatCount="indefinite"></animateTransform>
</circle><circle cx="14" cy="0" r="2" fill="#ffffff" transform="translate(0 34.3556)">
<animateTransform attributeName="transform" type="translate" values="0 130;0 -30" keyTimes="0;1" dur="3s" begin="-1.11s" repeatCount="indefinite"></animateTransform>
</circle><circle cx="11" cy="0" r="3" fill="#ffffff" transform="translate(0 60.5133)">
<animateTransform attributeName="transform" type="translate" values="0 107;0 -7" keyTimes="0;1" dur="3s" begin="-0.54s" repeatCount="indefinite"></animateTransform>
</circle><circle cx="64" cy="0" r="2" fill="#ffffff" transform="translate(0 -7.68)">
<animateTransform attributeName="transform" type="translate" values="0 113;0 -13" keyTimes="0;1" dur="3s" begin="-2.19s" repeatCount="indefinite"></animateTransform>
</circle><circle cx="15" cy="0" r="2" fill="#ffffff" transform="translate(0 54.3178)">
<animateTransform attributeName="transform" type="translate" values="0 117;0 -17" keyTimes="0;1" dur="3s" begin="-0.72s" repeatCount="indefinite"></animateTransform>
</circle><circle cx="94" cy="0" r="2" fill="#ffffff" transform="translate(0 41.1333)">
<animateTransform attributeName="transform" type="translate" values="0 107;0 -7" keyTimes="0;1" dur="3s" begin="-1.05s" repeatCount="indefinite"></animateTransform>
</circle><circle cx="87" cy="0" r="2" fill="#ffffff" transform="translate(0 39.5622)">
<animateTransform attributeName="transform" type="translate" values="0 127;0 -27" keyTimes="0;1" dur="3s" begin="-1.02s" repeatCount="indefinite"></animateTransform>
</circle><circle cx="14" cy="0" r="2" fill="#ffffff" transform="translate(0 60.7022)">
<animateTransform attributeName="transform" type="translate" values="0 136;0 -36" keyTimes="0;1" dur="3s" begin="-0.63s" repeatCount="indefinite"></animateTransform>
</circle><circle cx="24" cy="0" r="2" fill="#ffffff" transform="translate(0 0.888893)">
<animateTransform attributeName="transform" type="translate" values="0 115;0 -15" keyTimes="0;1" dur="3s" begin="-1.95s" repeatCount="indefinite"></animateTransform>
</circle><circle cx="14" cy="0" r="3" fill="#ffffff" transform="translate(0 39.1378)">
<animateTransform attributeName="transform" type="translate" values="0 144;0 -44" keyTimes="0;1" dur="3s" begin="-0.99s" repeatCount="indefinite"></animateTransform>
</circle><circle cx="84" cy="0" r="2" fill="#ffffff" transform="translate(0 121.864)">
<animateTransform attributeName="transform" type="translate" values="0 123;0 -23" keyTimes="0;1" dur="3s" begin="-2.34s" repeatCount="indefinite"></animateTransform>
</circle><circle cx="60" cy="0" r="3" fill="#ffffff" transform="translate(0 63.6489)">
<animateTransform attributeName="transform" type="translate" values="0 124;0 -24" keyTimes="0;1" dur="3s" begin="-0.54s" repeatCount="indefinite"></animateTransform>
</circle><circle cx="36" cy="0" r="2" fill="#ffffff" transform="translate(0 9.37334)">
<animateTransform attributeName="transform" type="translate" values="0 116;0 -16" keyTimes="0;1" dur="3s" begin="-1.74s" repeatCount="indefinite"></animateTransform>
</circle><circle cx="98" cy="0" r="2" fill="#ffffff" transform="translate(0 97.34)">
<animateTransform attributeName="transform" type="translate" values="0 131;0 -31" keyTimes="0;1" dur="3s" begin="-2.94s" repeatCount="indefinite"></animateTransform>
</circle><circle cx="35" cy="0" r="3" fill="#ffffff" transform="translate(0 5.42222)">
<animateTransform attributeName="transform" type="translate" values="0 118;0 -18" keyTimes="0;1" dur="3s" begin="-1.8s" repeatCount="indefinite"></animateTransform>
</circle><circle cx="14" cy="0" r="3" fill="#ffffff" transform="translate(0 58.1067)">
<animateTransform attributeName="transform" type="translate" values="0 146;0 -46" keyTimes="0;1" dur="3s" begin="-0.69s" repeatCount="indefinite"></animateTransform>
</circle><circle cx="34" cy="0" r="2" fill="#ffffff" transform="translate(0 3.8)">
<animateTransform attributeName="transform" type="translate" values="0 104;0 -4" keyTimes="0;1" dur="3s" begin="-2.1s" repeatCount="indefinite"></animateTransform>
</circle><circle cx="73" cy="0" r="3" fill="#ffffff" transform="translate(0 -45.6044)">
<animateTransform attributeName="transform" type="translate" values="0 148;0 -48" keyTimes="0;1" dur="3s" begin="-2.28s" repeatCount="indefinite"></animateTransform>
</circle><circle cx="86" cy="0" r="2" fill="#ffffff" transform="translate(0 55.5422)">
<animateTransform attributeName="transform" type="translate" values="0 136;0 -36" keyTimes="0;1" dur="3s" begin="-0.72s" repeatCount="indefinite"></animateTransform>
</circle><circle cx="42" cy="0" r="2" fill="#ffffff" transform="translate(0 35.6889)">
<animateTransform attributeName="transform" type="translate" values="0 106;0 -6" keyTimes="0;1" dur="3s" begin="-1.2s" repeatCount="indefinite"></animateTransform>
</circle><circle cx="12" cy="0" r="2" fill="#ffffff" transform="translate(0 71.1444)">
<animateTransform attributeName="transform" type="translate" values="0 105;0 -5" keyTimes="0;1" dur="3s" begin="-0.24s" repeatCount="indefinite"></animateTransform>
</circle><circle cx="5" cy="0" r="3" fill="#ffffff" transform="translate(0 93.6956)">
<animateTransform attributeName="transform" type="translate" values="0 103;0 -3" keyTimes="0;1" dur="3s" begin="-2.58s" repeatCount="indefinite"></animateTransform>
</circle><circle cx="70" cy="0" r="2" fill="#ffffff" transform="translate(0 48.4911)">
<animateTransform attributeName="transform" type="translate" values="0 147;0 -47" keyTimes="0;1" dur="3s" begin="-0.84s" repeatCount="indefinite"></animateTransform>
</circle><circle cx="49" cy="0" r="3" fill="#ffffff" transform="translate(0 89.12)">
<animateTransform attributeName="transform" type="translate" values="0 104;0 -4" keyTimes="0;1" dur="3s" begin="-2.73s" repeatCount="indefinite"></animateTransform>
</circle><circle cx="97" cy="0" r="2" fill="#ffffff" transform="translate(0 80.2222)">
<animateTransform attributeName="transform" type="translate" values="0 118;0 -18" keyTimes="0;1" dur="3s" begin="-0.15s" repeatCount="indefinite"></animateTransform>
</circle><circle cx="19" cy="0" r="3" fill="#ffffff" transform="translate(0 14.4)">
<animateTransform attributeName="transform" type="translate" values="0 140;0 -40" keyTimes="0;1" dur="3s" begin="-1.41s" repeatCount="indefinite"></animateTransform>
</circle>      </pattern></defs>

      <path fill="url(#lds-flask-patid-320ce07e18e8c)" clip-path="url(#lds-flask-cpid-caf44704a3c85)" d="M59,37.3V18.9c3-0.8,5.1-3.6,5.1-6.8C64.1,8.2,61,5,57.1,5H42.9c-3.9,0-7.1,3.2-7.1,7.1c0,3.2,2.2,6,5.1,6.8v18.4c-11.9,3.8-20.6,15-20.6,28.2C20.4,81.8,33.7,95,50,95s29.6-13.2,29.6-29.6C79.6,52.2,70.9,41.1,59,37.3z"></path>

      <path fill="none" stroke="#1390db" stroke-width="5" d="M59,37.3V18.9c3-0.8,5.1-3.6,5.1-6.8C64.1,8.2,61,5,57.1,5H42.9c-3.9,0-7.1,3.2-7.1,7.1c0,3.2,2.2,6,5.1,6.8v18.4c-11.9,3.8-20.6,15-20.6,28.2C20.4,81.8,33.7,95,50,95s29.6-13.2,29.6-29.6C79.6,52.2,70.9,41.1,59,37.3z"></path>
</svg>