<svg class="ldi-9s9eje" width="200px"  height="200px"  xmlns="http://www.w3.org/2000/svg" xmlns:xlink="http://www.w3.org/1999/xlink" viewBox="0 0 100 100" preserveAspectRatio="xMidYMid" style="background: none;"><!--?xml version="1.0" encoding="utf-8"?--><!--Generator: Adobe Illustrator 21.0.0, SVG Export Plug-In . SVG Version: 6.00 Build 0)--><svg version="1.1" id="圖層_1" xmlns="http://www.w3.org/2000/svg" xmlns:xlink="http://www.w3.org/1999/xlink" x="0px" y="0px" viewBox="0 0 100 100" style="transform-origin: 50px 50px 0px;" xml:space="preserve"><g style="transform-origin: 50px 50px 0px; transform: scale(0.6);"><g style="transform-origin: 50px 50px 0px;"><style type="text/css" class="ld ld-breath" style="transform-origin: 50px 50px 0px; animation-duration: 1s; animation-delay: -1s;">.st0,.st1{stroke-width:3.5;stroke-miterlimit:10}.st0{fill:#e0e0e0;stroke:#333}.st1{opacity:.2;stroke:#000;stroke-linejoin:round}.st2{fill:#333}.st3,.st4{fill:#a7a6a3;stroke:#333;stroke-width:3.5;stroke-miterlimit:10}.st4{fill:#fefefe}.st5{fill:#e0e0e0}.st6{fill:#66503a;stroke-miterlimit:10}.st6,.st7,.st8{stroke:#333;stroke-width:3.5}.st7{stroke-miterlimit:10;fill:#cfcfcf}.st8{fill:#e15b64}.st10,.st11,.st8,.st9{stroke-miterlimit:10}.st9{opacity:.2;stroke:#000;stroke-width:3.5}.st10,.st11{fill:none;stroke:#a0c8d7;stroke-width:2.6737}.st11{stroke:#e0e0e0;stroke-width:7.2641;stroke-linecap:round}.st12{fill:#f47e60}.st13{fill:#e15b64}.st14,.st15{fill:#fff;stroke:#e15b64;stroke-width:3.1455;stroke-miterlimit:10}.st15{fill:none;stroke-width:3;stroke-linecap:round}.st16{fill:#77a4bd}.st17{fill:#849b87}.st18{fill:none;stroke:#e0e0e0;stroke-width:4;stroke-linecap:round;stroke-miterlimit:10}.st19{fill:#666}.st20{fill:#f5e169;stroke:#333;stroke-width:4;stroke-miterlimit:10}.st21{fill:#f5e6c8}.st22{fill:#c33737}.st23{fill:#a0c8d7}.st24{fill:#f5e169}.st25,.st26,.st27{fill:#333;stroke:#333;stroke-width:4;stroke-miterlimit:10}.st26,.st27{fill:#a0c8d7}.st27{fill:none;stroke:#e0e0e0;stroke-width:6;stroke-linecap:round}.st28{fill:#b3b3b3}.st29,.st30{fill:#fff;stroke:#ccc;stroke-width:5;stroke-miterlimit:10}.st30{fill:none;stroke:#333;stroke-width:2;stroke-linecap:round}.st31{fill:#66503a}.st32{fill:#cfcfcf}.st33{fill:#f8b26a}.st34{opacity:.11}.st35{fill:#534741}.st36{fill:#999}.st37{fill:#ccc}.st38,.st39{fill:#fff;stroke:#ccc;stroke-width:2;stroke-miterlimit:10}.st39{fill:none;stroke:#c33737}.st40{fill:#fff}.st41{fill:none;stroke:#e15b64;stroke-width:3.6211;stroke-linecap:round;stroke-miterlimit:10}.st42{fill:none;stroke:#f8b26a}.st42,.st43,.st44{stroke-width:3.6211;stroke-linecap:round;stroke-miterlimit:10}.st43{fill:none;stroke:#849b87}.st44{stroke:#77a4bd}.st44,.st45,.st46{fill:none}.st46{stroke:#e15b64;stroke-width:4.7391;stroke-linecap:round;stroke-miterlimit:10}.st47{opacity:.2}.st48{stroke-linecap:round}.st48,.st49,.st50{fill:none;stroke:#333;stroke-width:4;stroke-miterlimit:10}.st50{stroke:#fff;stroke-width:8;stroke-linecap:round}.st51,.st52,.st53{fill:#fff;stroke:#333;stroke-width:3.5556;stroke-miterlimit:10}.st52,.st53{fill:#f8b26a}.st53{fill:#e15b64}.st54{fill:#f2f2f2}.st55{fill:url(#SVGID_1_)}.st56{fill:#c33636}.st57,.st58{fill:#666;stroke:#fff;stroke-width:2.7517;stroke-linecap:round;stroke-miterlimit:10}.st58{fill:none;stroke:#c33737}.st59{fill:#983733}.st60{fill:#666;stroke:#fff;stroke-width:5.2308;stroke-linecap:round}.st60,.st61,.st62,.st63{stroke-miterlimit:10}.st61{stroke-linecap:round;fill:#e15b64;stroke:#fff;stroke-width:4}.st62,.st63{fill:#fff;stroke:#e0e0e0;stroke-width:2}.st63{fill:none;stroke:#e15b64;stroke-linecap:round}.st64{fill:#abbd81}.st65{fill:none;stroke:#333;stroke-width:2.0086;stroke-miterlimit:10}.st66{fill:#ffc9c7}.st67{fill:#d58b72}.st68,.st69{fill:none;stroke:#fff;stroke-width:3.5934;stroke-linecap:round;stroke-miterlimit:10}.st69{stroke-width:2.8421}.st70,.st71,.st72,.st73{fill:#f8b26a;stroke:#333;stroke-width:4;stroke-miterlimit:10}.st71,.st72,.st73{fill:#abbd81}.st72,.st73{fill:none;stroke:#849b87;stroke-width:3;stroke-linecap:round}.st73{stroke:#333}.st74{opacity:.2;fill:#fff}.st75{opacity:.1}.st76,.st77{fill:#fff;stroke:#333;stroke-width:4;stroke-miterlimit:10}.st77{fill:#77a4bd}.st78,.st79{stroke-linecap:round}.st78{fill:#666;stroke:#fff;stroke-linejoin:round;stroke-miterlimit:10;stroke-width:1.0575}.st79{stroke-width:3.2619}.st79,.st80,.st81,.st82{fill:none;stroke:#666;stroke-miterlimit:10}.st80{stroke-linecap:round;stroke-width:3.6813}.st81,.st82{stroke-width:3.2619}.st82{fill:#f8b26a;stroke:#333;stroke-width:3;stroke-linecap:round;stroke-linejoin:round}.st83{fill:#fff;stroke-width:3.1421}.st83,.st84,.st85,.st86,.st87{stroke:#e0e0e0;stroke-miterlimit:10}.st84{stroke-linecap:round;fill:none;stroke-width:5.5857}.st85,.st86,.st87{fill:#a0c8d7;stroke-width:.9213}.st86,.st87{fill:#f5e6c8;stroke:#333;stroke-width:3.5}.st87{fill:none;stroke:#fff}.st87,.st88{stroke-linecap:round}.st88,.st89,.st90,.st91{fill:none;stroke:#333;stroke-width:3.5;stroke-miterlimit:10}.st90,.st91{fill:#a0c8d7}.st91{fill:#ccc}.st92,.st93{stroke-linejoin:round}.st92{stroke-width:3.5;stroke-miterlimit:10;fill:#e0e0e0;stroke:#333}.st93{fill:none;stroke:#fff;stroke-linecap:round}.st93,.st94,.st95{stroke-width:3.5;stroke-miterlimit:10}.st94{opacity:.11;stroke:#000}.st95{fill:#77a4bd;stroke:#333}.st96{fill:#333}.st100,.st101,.st102,.st96,.st97,.st98,.st99{stroke:#333;stroke-width:3.5;stroke-miterlimit:10}.st97{stroke-linecap:round;fill:#e0e0e0}.st100,.st101,.st102,.st98,.st99{fill:#999}.st100,.st101,.st102,.st99{fill:#f8b26a}.st100,.st101,.st102{fill:#fefefe;stroke-linejoin:round}.st101,.st102{fill:#b3b3b3}.st102{fill:#666}.st103{fill:#fefefe}.st104,.st105{stroke-linejoin:round}.st104{fill:none;stroke-width:3.5;stroke-linecap:round;stroke-miterlimit:10;stroke:#333}.st105{stroke:#000}.st105,.st106,.st107,.st108{stroke-width:3.5;stroke-miterlimit:10}.st106{stroke-linecap:round;fill:#e15b64;stroke:#fff}.st107,.st108{fill:#666;stroke:#333}.st108{fill:#f47e60}</style><g class="ld ld-breath" style="transform-origin: 50px 50px 0px; animation-duration: 1s; animation-delay: -0.916667s;"><path class="st56" d="M71.1,12.9C58.2,12.9,51.3,21,50,25.9c-1.2-5.1-9.8-13.1-21.1-13.1c-11.8,0-21.4,9.6-21.4,21.4c0,0,0,0,0,0 c0,0.6,0,1.2,0.1,1.8c0,0.1,0,0.2,0,0.3c0.1,0.6,0.1,1.1,0.2,1.7c0,0.1,0.1,0.3,0.1,0.4c0.1,0.5,0.2,1.1,0.4,1.6 c0,0.1,0.1,0.2,0.1,0.4c0.1,0.5,0.3,0.9,0.5,1.4C8.9,42,9,42.2,9,42.3c0.2,0.5,0.4,1,0.6,1.5c0.1,0.2,0.2,0.4,0.3,0.6 c0.2,0.5,0.4,0.9,0.7,1.4c0.1,0.3,0.3,0.5,0.4,0.8c0.2,0.3,0.3,0.6,0.5,0.8c0.3,0.4,0.5,0.9,0.8,1.3c0.1,0.2,0.2,0.4,0.4,0.6 c0.4,0.6,0.8,1.2,1.2,1.9c0,0.1,0.1,0.1,0.1,0.2c0.3,0.4,0.5,0.7,0.8,1.1h0c0.9,1.3,1.9,2.5,3,3.8h0c0.1,0.1,0.2,0.2,0.2,0.3 c0.6,0.7,1.2,1.4,1.8,2.1c0,0,0,0,0.1,0.1c2.9,3.2,6,6.3,9.2,9.2c6.2,5.7,12.5,10.8,16.8,14.9c0,0,0,0,0,0c0.4,0.4,0.8,0.7,1.1,1.1 c0.1,0.1,0.1,0.1,0.2,0.2c0.3,0.3,0.7,0.7,1,1c0,0,0,0,0.1,0.1c0.3,0.3,0.6,0.6,0.9,0.9c0.1,0.1,0.1,0.1,0.2,0.2 c0.3,0.3,0.5,0.6,0.7,0.9c0.2-0.3,0.5-0.6,0.7-1c0.1-0.1,0.1-0.1,0.2-0.2c0.3-0.3,0.5-0.7,0.8-1c0,0,0-0.1,0.1-0.1 c0.3-0.3,0.6-0.7,0.9-1c0.1-0.1,0.1-0.1,0.2-0.2c0.3-0.4,0.7-0.7,1.1-1.1c0,0,0.1-0.1,0.1-0.1c0.4-0.4,0.8-0.8,1.2-1.1 c0,0,0.1-0.1,0.1-0.1c4.7-4.4,11.3-9.7,17.6-15.5c2.5-2.3,4.9-4.6,7.1-7c0.1-0.1,0.1-0.2,0.2-0.2c0.6-0.6,1.2-1.3,1.8-2 c0.1-0.1,0.2-0.2,0.2-0.3h0c1.1-1.2,2.1-2.5,3-3.8h0c0.2-0.3,0.4-0.6,0.7-0.9c0.2-0.2,0.3-0.4,0.5-0.7c0.3-0.4,0.6-0.9,0.9-1.3 c0.2-0.3,0.3-0.5,0.5-0.8c0.2-0.3,0.4-0.6,0.6-1c0.2-0.4,0.4-0.8,0.6-1.1c0.1-0.2,0.2-0.5,0.4-0.7c0.2-0.5,0.5-1,0.7-1.4 c0.1-0.2,0.2-0.4,0.2-0.6c0.2-0.5,0.4-1,0.6-1.5c0.1-0.1,0.1-0.3,0.1-0.4c0.2-0.5,0.3-1,0.5-1.5c0-0.1,0.1-0.3,0.1-0.4 c0.2-0.6,0.3-1.1,0.4-1.7c0-0.1,0.1-0.3,0.1-0.4c0.1-0.6,0.2-1.2,0.3-1.7c0-0.1,0-0.2,0-0.3c0.1-0.6,0.1-1.2,0.1-1.8c0,0,0,0,0,0 C92.5,22.5,82.9,12.9,71.1,12.9z" fill="#1089d1" style="fill: rgb(16, 137, 209);"></path></g><g class="ld ld-breath" style="transform-origin: 50px 50px 0px; animation-duration: 1s; animation-delay: -0.833333s;"><polygon class="st40" points="64,46 54,46 54,36 46,36 46,46 36,46 36,54 46,54 46,64 54,64 54,54 64,54 " fill="rgb(255, 255, 255)" style="fill: rgb(255, 255, 255);"></polygon></g><metadata xmlns:d="https://loading.io/stock/" class="ld ld-breath" style="transform-origin: 50px 50px 0px; animation-duration: 1s; animation-delay: -0.75s;">
<d:name class="ld ld-breath" style="transform-origin: 50px 50px 0px; animation-duration: 1s; animation-delay: -0.666667s;">heart</d:name>
<d:tags class="ld ld-breath" style="transform-origin: 50px 50px 0px; animation-duration: 1s; animation-delay: -0.583333s;">heart,medic,hospital,treatment,first aid,help,doctor,er room</d:tags>
<d:license class="ld ld-breath" style="transform-origin: 50px 50px 0px; animation-duration: 1s; animation-delay: -0.5s;">cc-by</d:license>
<d:slug class="ld ld-breath" style="transform-origin: 50px 50px 0px; animation-duration: 1s; animation-delay: -0.416667s;">9s9eje</d:slug>
</metadata></g></g><style type="text/css" class="ld ld-breath" style="transform-origin: 50px 50px 0px; animation-duration: 1s; animation-delay: -0.333333s;">path,ellipse,circle,rect,polygon,polyline,line { stroke-width: 0; }@keyframes ld-breath {
  0% {
    -webkit-transform: scale(0.86);
    transform: scale(0.86);
  }
  50% {
    -webkit-transform: scale(1.06);
    transform: scale(1.06);
  }
  100% {
    -webkit-transform: scale(0.86);
    transform: scale(0.86);
  }
}
@-webkit-keyframes ld-breath {
  0% {
    -webkit-transform: scale(0.86);
    transform: scale(0.86);
  }
  50% {
    -webkit-transform: scale(1.06);
    transform: scale(1.06);
  }
  100% {
    -webkit-transform: scale(0.86);
    transform: scale(0.86);
  }
}
.ld.ld-breath {
  -webkit-animation: ld-breath 1s infinite;
  animation: ld-breath 1s infinite;
}
</style></svg></svg>