<svg width="200px"  height="200px"  xmlns="http://www.w3.org/2000/svg" viewBox="0 0 100 100" preserveAspectRatio="xMidYMid" class="lds-stripe" style="background: none;">
    <defs>
      <pattern ng-attr-id="{{config.patid}}" patternUnits="userSpaceOnUse" x="0" y="0" width="100" height="100" id="lds-stripe-patid-5e268983d9353">
        <g transform="translate(6.93333 0)">
          <g transform="rotate(20 50 50) scale(1.2)">
            <rect x="-20" y="-10" width="10" height="120" ng-attr-fill="{{config.c1}}" fill="#88a2ce"></rect>
            <rect x="-10" y="-10" width="10" height="120" ng-attr-fill="{{config.c2}}" fill="#c2d2ee"></rect>
            <rect x="0" y="-10" width="10" height="120" ng-attr-fill="{{config.c1}}" fill="#88a2ce"></rect>
            <rect x="10" y="-10" width="10" height="120" ng-attr-fill="{{config.c2}}" fill="#c2d2ee"></rect>
            <rect x="20" y="-10" width="10" height="120" ng-attr-fill="{{config.c1}}" fill="#88a2ce"></rect>
            <rect x="30" y="-10" width="10" height="120" ng-attr-fill="{{config.c2}}" fill="#c2d2ee"></rect>
            <rect x="40" y="-10" width="10" height="120" ng-attr-fill="{{config.c1}}" fill="#88a2ce"></rect>
            <rect x="50" y="-10" width="10" height="120" ng-attr-fill="{{config.c2}}" fill="#c2d2ee"></rect>
            <rect x="60" y="-10" width="10" height="120" ng-attr-fill="{{config.c1}}" fill="#88a2ce"></rect>
            <rect x="70" y="-10" width="10" height="120" ng-attr-fill="{{config.c2}}" fill="#c2d2ee"></rect>
            <rect x="80" y="-10" width="10" height="120" ng-attr-fill="{{config.c1}}" fill="#88a2ce"></rect>
            <rect x="90" y="-10" width="10" height="120" ng-attr-fill="{{config.c2}}" fill="#c2d2ee"></rect>
            <rect x="100" y="-10" width="10" height="120" ng-attr-fill="{{config.c1}}" fill="#88a2ce"></rect>
            <rect x="110" y="-10" width="10" height="120" ng-attr-fill="{{config.c1}}" fill="#88a2ce"></rect>
          </g>
          <animateTransform attributeName="transform" type="translate" values="0 0;26 0" keyTimes="0;1" ng-attr-dur="{{config.speed}}s" repeatCount="indefinite" dur="1s"></animateTransform>
        </g>
      </pattern>
    </defs>
    <rect ng-attr-rx="{{config.r}}" ng-attr-ry="{{config.r}}" ng-attr-x="{{config.x}}" ng-attr-y="{{config.y}}" ng-attr-stroke="{{config.stroke}}" ng-attr-stroke-width="{{config.strokeWidth}}" ng-attr-width="{{config.width}}" ng-attr-height="{{config.height}}" ng-attr-fill="url(#{{config.patid}})" rx="10" ry="10" x="2.5" y="39.5" stroke="#456caa" stroke-width="2.5" width="95" height="21" fill="url(#lds-stripe-patid-5e268983d9353)"></rect>
  </svg>